<svg version="1.1" id="Layer_1" xmlns="http://www.w3.org/2000/svg" xmlns:xlink="http://www.w3.org/1999/xlink" x="0px" y="0px"
	 width="100%" viewBox="0 0 1024 1024" enable-background="new 0 0 1024 1024" xml:space="preserve">
<path fill="#FEFDFB" opacity="1.000000" stroke="none" 
	d="
M539.000000,1025.000000 
	C359.333344,1025.000000 180.166672,1025.000000 1.000000,1025.000000 
	C1.000000,683.666687 1.000000,342.333344 1.000000,1.000000 
	C342.333344,1.000000 683.666687,1.000000 1025.000000,1.000000 
	C1025.000000,342.333344 1025.000000,683.666687 1025.000000,1025.000000 
	C863.166687,1025.000000 701.333313,1025.000000 539.000000,1025.000000 
M656.425293,339.669128 
	C656.425293,339.669128 656.444763,339.513062 656.288635,338.944641 
	C655.691895,338.476624 655.095093,338.008575 654.334351,337.560242 
	C654.334351,337.560242 654.348450,337.724823 654.294250,337.112671 
	C653.932678,336.961884 653.571045,336.811066 653.307373,336.762146 
	C653.307373,336.762146 653.364197,336.632782 653.127869,336.021362 
	C645.303833,329.141052 635.882996,327.215912 625.837891,327.223938 
	C609.566528,327.236908 593.295105,327.256836 577.023743,327.245117 
	C575.453918,327.243988 573.884277,327.041077 571.830688,326.898193 
	C571.830688,314.917938 571.830688,303.483368 571.998535,291.156250 
	C570.724121,283.663422 569.996216,276.026276 568.063354,268.707397 
	C563.829163,252.674377 556.494995,238.149033 545.005737,225.983429 
	C545.005737,225.983429 545.079285,225.962814 544.927673,225.302811 
	C512.522034,189.031769 467.795807,177.046204 422.855835,193.064774 
	C408.552612,198.163071 395.468719,205.662155 384.993317,216.993134 
	C384.993317,216.993134 384.960144,216.926285 384.321442,217.128128 
	C381.270599,220.394104 378.018890,223.496506 375.203400,226.954117 
	C362.310516,242.787628 353.601593,260.531555 350.857361,281.785217 
	C350.584167,284.225464 350.310974,286.665680 349.769379,289.852051 
	C349.638184,300.345184 349.301422,310.841644 349.472809,321.329834 
	C349.545624,325.786560 348.478546,327.417572 343.663269,327.279938 
	C330.678925,326.908844 317.677185,327.042816 304.683350,327.129730 
	C280.475098,327.291718 265.172760,346.026855 264.923431,366.796570 
	C264.574951,369.075562 264.219727,371.353516 263.879150,373.633698 
	C261.968414,386.425995 260.061157,399.218842 258.031250,412.844055 
	C257.813049,414.637512 257.610992,416.433136 257.374023,418.224121 
	C256.017609,428.475555 254.652878,438.725891 253.043396,449.841125 
	C252.994186,451.824921 253.163528,453.842865 252.859451,455.786804 
	C251.182129,466.510040 249.389252,477.215179 247.217697,488.545288 
	C245.175446,503.009277 243.133209,517.473267 240.931778,532.821899 
	C239.695831,541.227356 238.459869,549.632812 236.989349,558.823425 
	C236.090347,564.901855 235.164917,570.976562 234.297897,577.059570 
	C232.543884,589.365601 230.821533,601.676270 228.942123,614.868286 
	C227.677414,623.224670 226.342712,631.571167 225.166748,639.940002 
	C223.860001,649.239685 222.697952,658.559753 221.148056,668.625305 
	C222.196564,675.761475 221.994049,683.381470 224.531326,689.941833 
	C231.745804,708.595581 250.026993,718.255188 273.940399,717.007874 
	C388.304047,717.016541 502.667664,717.032104 617.031311,717.026184 
	C633.675110,717.025330 650.318848,716.922119 667.711243,717.044250 
	C668.477539,717.015747 669.243896,716.987305 670.838501,716.947388 
	C672.625366,716.563538 674.423828,716.226379 676.197144,715.787720 
	C684.005676,713.856262 691.436890,711.174500 697.021057,705.021484 
	C697.021057,705.021484 697.065063,705.105164 697.710022,704.914124 
	C704.260132,698.592041 709.748047,691.691040 710.071594,682.040527 
	C710.071594,682.040527 710.102173,682.144165 710.710571,681.806641 
	C710.921875,681.014160 711.392944,680.192078 711.306335,679.433594 
	C709.341370,662.229553 707.315430,645.032471 705.318359,626.997559 
	C704.821899,623.668823 704.325439,620.340149 703.924683,616.311951 
	C703.722412,615.041870 703.526306,613.770813 703.316895,612.501953 
	C701.576660,601.957336 699.833984,591.413086 698.064148,580.964233 
	C698.064148,580.964233 698.163391,580.970032 698.204285,580.288086 
	C697.491699,576.125305 696.779175,571.962463 696.055908,567.396851 
	C696.055908,567.396851 695.928101,567.014648 696.110535,566.363525 
	C696.145813,565.377991 696.333618,564.370300 696.193665,563.410278 
	C693.744690,546.613525 691.255737,529.822632 688.808777,512.258484 
	C687.846375,508.486877 686.884033,504.715302 686.041443,500.241821 
	C685.713196,497.792023 685.385010,495.342194 685.028076,492.982147 
	C685.028076,492.982147 685.120361,493.001160 685.138123,492.315460 
	C684.245483,485.482635 683.352905,478.649841 682.532043,471.030334 
	C682.322021,470.003204 682.112000,468.976105 681.910217,467.388580 
	C681.601074,466.932983 681.291992,466.477356 681.447876,465.536285 
	C681.245422,463.672638 681.042969,461.808990 680.918091,459.102936 
	C679.965637,454.364197 679.013123,449.625458 678.036682,444.980194 
	C678.036682,444.980194 678.132507,444.991974 678.134827,444.279327 
	C677.454529,440.468170 676.774170,436.657013 676.088379,432.971405 
	C676.088379,432.971405 676.212646,432.952271 676.127563,432.216858 
	C675.846191,428.647400 675.795410,425.041626 675.239807,421.515381 
	C673.628113,411.286896 671.813721,401.090363 670.056519,390.967163 
	C670.056519,390.967163 670.145264,390.969879 670.181763,390.249817 
	C668.812561,380.492432 667.443420,370.735077 666.118958,360.167786 
	C665.457336,357.718231 664.795715,355.268677 664.140198,352.946320 
	C664.140198,352.946320 664.260132,352.903625 664.205933,352.149414 
	C662.907593,349.659302 661.609314,347.169159 660.260376,344.810028 
	C660.260376,344.810028 660.392883,344.763367 660.320801,344.096802 
	C659.322754,342.954071 658.324768,341.811340 657.222229,340.740662 
	C657.222229,340.740662 657.341431,340.784393 657.266602,340.176300 
	C656.934143,340.001068 656.601624,339.825806 656.425293,339.669128 
M761.016235,240.987839 
	C761.016235,240.987839 761.094238,240.940475 760.875122,240.308823 
	C758.256714,237.855484 755.638306,235.402130 753.000244,233.000214 
	C753.000244,233.000214 753.050842,232.978241 752.773682,232.367188 
	C741.850708,224.818573 731.138733,216.934525 719.909668,209.872665 
	C714.824341,206.674545 708.712280,205.109146 703.055664,202.922394 
	C703.055664,202.922394 703.174011,202.903870 702.978577,202.390060 
	C702.669006,202.285355 702.359497,202.180664 701.269653,201.977341 
	C699.066101,201.303467 696.862549,200.629608 694.190613,199.554901 
	C692.935059,198.914597 691.744812,197.961594 690.413574,197.683212 
	C679.275024,195.353882 668.183777,192.584854 656.925720,191.122452 
	C650.429810,190.278641 645.575439,194.705444 643.194946,200.675064 
	C641.023926,206.119003 641.234131,211.628113 645.966736,215.998154 
	C645.966736,215.998154 645.916138,216.043442 646.096008,216.713867 
	C648.955322,218.199051 651.676575,220.546478 654.696289,221.029984 
	C674.857666,224.258194 694.350708,229.489578 711.746216,240.486832 
	C720.514526,246.030029 728.579468,252.685822 737.512817,259.232361 
	C739.650208,261.506165 741.787598,263.779968 743.878540,266.692810 
	C744.586304,267.467896 745.294128,268.243011 746.004333,268.997437 
	C746.004333,268.997437 745.983582,268.996857 746.182373,269.651215 
	C757.561951,283.722382 766.791016,299.085480 772.499451,316.275238 
	C775.619934,325.671753 777.509094,335.477234 779.887024,345.991730 
	C780.259216,350.124908 780.596680,354.261597 781.011292,358.390533 
	C781.709412,365.342560 785.864197,369.970245 793.787720,372.050568 
	C795.024780,371.753418 796.308716,371.077240 797.490845,371.223541 
	C803.157166,371.924866 806.394104,368.646729 809.784729,364.041962 
	C813.001038,357.360291 812.048950,350.609222 810.080688,343.948059 
	C810.080688,343.948059 810.193604,343.960083 810.134705,343.203766 
	C810.134705,341.391113 810.381470,339.538727 810.097229,337.771790 
	C806.473267,315.242554 799.277466,293.876617 787.085999,274.592224 
	C780.665344,264.436157 772.492493,255.387817 765.082886,245.937668 
	C765.082886,245.937668 765.174927,245.893051 765.041565,245.226471 
	C763.713501,243.786438 762.385437,242.346420 761.016235,240.987839 
M720.977600,296.250641 
	C715.663391,291.143829 710.349243,286.037048 705.003540,280.993164 
	C705.003540,280.993164 705.066772,280.962433 704.805847,280.340942 
	C693.282043,271.326630 680.210205,265.119263 666.659241,259.991608 
	C655.050720,255.599014 644.901611,260.129578 642.512756,270.059570 
	C640.227295,279.559753 645.495850,286.795135 656.370544,290.094910 
	C679.840820,297.216522 698.801636,309.981506 707.693054,334.000916 
	C710.263916,340.946075 710.979492,348.559509 712.853699,355.786682 
	C714.456787,361.968597 718.039307,366.669342 724.699280,367.903198 
	C730.674988,369.010284 736.188293,367.602661 739.791260,362.463165 
	C743.629211,356.988525 744.405701,350.927826 741.089661,344.066071 
	C739.818970,338.691315 738.548279,333.316589 737.264099,327.198944 
	C734.902039,315.472748 728.758118,305.763428 721.041626,296.958923 
	C721.041626,296.958923 721.135620,296.918121 720.977600,296.250641 
z"/>
<path fill="#FA4939" opacity="1.000000" stroke="none" 
	d="
M237.223938,558.038269 
	C238.459869,549.632812 239.695831,541.227356 241.385193,532.298950 
	C242.196579,531.262573 242.791245,530.785645 242.877151,530.230042 
	C244.267014,521.242737 245.767166,512.266724 246.863647,503.242126 
	C247.478622,498.180389 247.401367,493.034515 247.635986,487.926544 
	C249.389252,477.215179 251.182129,466.510040 252.859451,455.786804 
	C253.163528,453.842865 252.994186,451.824921 253.516846,449.313477 
	C255.671524,437.208649 257.352753,425.631470 259.308990,413.775391 
	C260.428314,407.152466 261.257721,400.806366 262.120453,394.464813 
	C263.411743,384.972839 264.726410,375.484039 266.300568,365.724060 
	C268.474762,359.133026 269.349640,352.233551 272.504700,346.614410 
	C278.549347,335.848969 288.765259,330.519867 301.420349,328.992737 
	C317.270477,328.992737 332.646454,328.986755 348.371094,328.974976 
	C349.489594,327.646149 350.259430,326.323120 351.022034,324.531311 
	C351.347260,309.705200 351.679718,295.347809 352.287415,280.716431 
	C352.920319,278.507477 353.182190,276.548981 353.650452,274.641174 
	C358.541290,254.715347 367.569489,237.048737 382.058746,222.304825 
	C383.430176,220.909302 384.011841,218.737625 384.960144,216.926285 
	C384.960144,216.926285 384.993317,216.993134 385.330353,216.991211 
	C387.179230,216.086884 388.867004,215.386902 390.175171,214.250076 
	C400.810089,205.008133 412.906677,197.961395 426.040894,193.388870 
	C439.516937,188.697357 453.783936,186.354935 468.126221,188.158936 
	C478.233398,189.430252 488.602509,190.941132 498.070435,194.456955 
	C514.373169,200.510818 528.541016,210.433121 540.663147,223.089172 
	C541.845947,224.324097 543.593750,225.017853 545.079285,225.962814 
	C545.079285,225.962814 545.005737,225.983429 545.007690,226.324890 
	C545.974548,228.550140 546.670349,230.642761 547.945618,232.285538 
	C561.340576,249.540695 569.122986,268.875275 570.045227,290.831421 
	C570.090881,291.917297 570.646545,292.981750 570.964050,294.521301 
	C570.961365,303.794342 571.410645,312.632965 570.813599,321.400360 
	C570.340820,328.343201 570.331726,328.999847 578.112488,329.000641 
	C595.562134,329.002380 613.015564,328.809631 630.458618,329.148926 
	C634.736145,329.232117 639.062073,330.804352 643.213806,332.158051 
	C646.711731,333.298553 649.989136,335.115326 653.364197,336.632782 
	C653.364197,336.632782 653.307373,336.762146 653.297974,337.019043 
	C653.641907,337.425568 653.995178,337.575195 654.348450,337.724823 
	C654.348450,337.724823 654.334351,337.560242 654.282043,337.933350 
	C654.968079,338.708618 655.706421,339.110840 656.444763,339.513062 
	C656.444763,339.513062 656.425293,339.669128 656.355103,339.974731 
	C656.637024,340.448364 656.989258,340.616364 657.341431,340.784363 
	C657.341431,340.784393 657.222229,340.740662 657.184875,341.067627 
	C658.229309,342.517517 659.311096,343.640442 660.392883,344.763367 
	C660.392883,344.763367 660.260376,344.810028 660.208740,345.132080 
	C661.524719,347.937286 662.892456,350.420471 664.260132,352.903625 
	C664.260132,352.903625 664.140198,352.946320 664.098999,353.310852 
	C664.364136,356.130859 664.670471,358.586304 664.981323,361.470520 
	C666.024048,370.509155 667.001587,379.127289 668.172668,387.719055 
	C668.329651,388.870880 669.463684,389.889557 670.145264,390.969879 
	C670.145264,390.969879 670.056519,390.967163 670.040039,391.389343 
	C671.209900,401.272614 672.294312,410.748108 673.628479,420.188324 
	C674.234924,424.479004 675.335999,428.699768 676.212646,432.952271 
	C676.212646,432.952271 676.088379,432.971405 676.055725,433.363068 
	C676.726196,437.500488 677.429382,441.246216 678.132507,444.991974 
	C678.132507,444.991974 678.036682,444.980194 678.028076,445.393280 
	C678.959839,450.519348 679.900208,455.232361 680.840515,459.945343 
	C681.042969,461.808990 681.245422,463.672638 680.999329,465.944275 
	C681.001160,466.884521 681.451599,467.416748 681.902039,467.948975 
	C682.112000,468.976105 682.322021,470.003204 682.169434,471.631927 
	C682.911377,479.156067 684.015869,486.078613 685.120361,493.001160 
	C685.120361,493.001160 685.028076,492.982147 685.018616,493.372162 
	C685.313293,496.156006 685.617432,498.549866 685.921631,500.943695 
	C686.884033,504.715302 687.846375,508.486877 688.548645,512.957031 
	C688.191528,514.306091 687.939880,514.976379 688.020142,515.604248 
	C690.106934,531.918884 692.208923,548.231750 694.396423,564.533142 
	C694.514526,565.412964 695.399902,566.189819 695.928101,567.014648 
	C695.928101,567.014648 696.055908,567.396851 696.038513,568.056824 
	C696.735168,572.801208 697.449280,576.885620 698.163391,580.970032 
	C698.163391,580.970032 698.064148,580.964233 698.045166,581.379944 
	C698.854309,590.804443 699.484009,599.838562 700.626892,608.807251 
	C700.986816,611.632141 702.722839,614.281616 703.828979,617.011414 
	C704.325439,620.340149 704.821899,623.668823 704.991089,627.645447 
	C704.518127,628.911316 704.185120,629.551147 704.254150,630.144104 
	C706.271667,647.469849 710.598755,664.534485 710.102173,682.144165 
	C710.102173,682.144165 710.071594,682.040527 709.810791,682.229614 
	C707.792847,686.423035 706.300964,690.572998 704.203430,694.390259 
	C702.144165,698.137878 699.469543,701.547302 697.065063,705.105103 
	C697.065063,705.105164 697.021057,705.021484 696.675415,705.050293 
	C694.209229,706.159241 692.147705,707.381409 689.956238,708.290527 
	C685.067383,710.318481 680.088623,712.129456 675.199646,714.156921 
	C673.393127,714.906006 671.735596,716.014282 670.010193,716.958740 
	C669.243896,716.987305 668.477539,717.015747 667.028564,716.681274 
	C665.194641,716.211365 664.043396,716.010925 662.892212,716.010864 
	C532.915344,716.004761 402.938416,716.013489 272.524750,716.011902 
	C268.725983,715.682922 265.363953,715.363464 261.600037,715.028931 
	C260.123962,715.006226 259.049805,714.998657 257.643341,714.838867 
	C256.694183,714.450378 256.089172,714.175232 255.458755,713.983521 
	C237.006134,708.371399 225.430283,696.690552 222.822784,677.066833 
	C222.414734,673.995972 221.924927,670.935974 221.472916,667.870911 
	C222.697952,658.559753 223.860001,649.239685 225.166748,639.940002 
	C226.342712,631.571167 227.677414,623.224670 229.390503,614.338989 
	C230.172531,613.463379 230.746521,613.153381 230.805176,612.765381 
	C233.221832,596.785583 235.657135,580.807922 237.892242,564.802307 
	C238.196808,562.621216 237.472076,560.296509 237.223938,558.038269 
M377.628235,411.240631 
	C377.443970,411.550262 377.259705,411.859924 377.087646,412.067780 
	C377.087646,412.067780 377.181152,412.109924 376.437012,412.129181 
	C375.996460,413.139160 375.555908,414.149139 375.080902,415.065735 
	C375.080902,415.065735 375.180389,415.062347 374.501251,415.286438 
	C373.685791,417.188904 372.870361,419.091339 372.028748,421.931549 
	C372.033875,489.629639 372.039032,557.327698 372.035828,625.796204 
	C375.516632,639.948425 389.341675,645.594604 401.052094,637.821472 
	C410.158875,631.776611 419.486542,626.065247 428.635590,620.082642 
	C429.876160,619.271362 430.647461,617.742493 431.914856,616.919678 
	C431.914856,616.919678 431.641632,616.551025 432.381439,616.800781 
	C434.330078,615.935120 436.413666,615.286255 438.206421,614.170227 
	C456.202820,602.967224 474.167145,591.712402 492.079590,580.375916 
	C493.326782,579.586609 494.089233,578.031311 495.197205,576.755493 
	C495.197205,576.755493 495.326996,576.814575 496.137848,576.902527 
	C503.963470,572.403442 511.810822,567.940979 519.577820,563.342773 
	C520.277344,562.928650 520.457825,561.637695 520.880005,560.866150 
	C520.880005,560.866150 520.780457,560.814331 521.559387,560.939819 
	C526.810974,557.916809 532.131653,555.006714 537.298401,551.845032 
	C545.647400,546.736145 554.019653,541.647888 562.152893,536.208252 
	C571.480286,529.969971 572.248291,514.413879 563.404541,508.348724 
	C555.793213,503.128815 547.668884,498.660065 539.808228,493.799683 
	C526.970337,485.861877 514.224243,477.773224 501.304321,469.972076 
	C497.403900,467.617004 493.056030,466.003052 488.986206,464.014709 
	C488.986206,464.014709 488.955872,464.089813 488.922302,463.375031 
	C483.557892,459.722595 478.287903,455.918762 472.785553,452.487549 
	C470.372284,450.982574 467.484955,450.237701 464.907745,449.105835 
	C464.907745,449.105835 464.908173,449.209503 464.734711,448.527191 
	C462.386780,446.755554 460.201447,444.693542 457.658783,443.269623 
	C451.384216,439.755859 444.945740,436.534760 438.231750,433.239990 
	C438.231750,433.239990 437.956238,433.033661 437.902374,432.329102 
	C437.452057,431.663422 437.151337,430.760468 436.528778,430.367981 
	C428.260193,425.154358 420.020599,419.886841 411.607300,414.914490 
	C408.258392,412.935242 404.500092,411.648682 400.996674,410.010803 
	C400.996674,410.010803 400.960114,410.078979 400.897186,409.339935 
	C394.913605,404.174377 384.006836,404.602081 379.050140,410.083466 
	C379.050140,410.083466 379.166107,410.080353 378.635376,410.241486 
	C378.446198,410.546631 378.257050,410.851807 378.055420,411.055969 
	C378.055420,411.055969 378.156494,411.067474 377.628235,411.240631 
M540.966064,288.131744 
	C539.612305,282.192078 538.868835,276.025909 536.767456,270.363708 
	C533.264587,260.925293 529.021912,251.728546 520.951904,244.272476 
	C516.657776,240.327148 512.583191,236.105453 508.028778,232.487839 
	C493.850250,221.225571 477.187256,216.996307 459.505096,217.226593 
	C451.881439,217.325897 444.258972,219.504257 436.695129,221.031235 
	C434.342316,221.506226 432.183746,222.943604 429.186584,223.985123 
	C415.508942,228.151596 405.770233,237.613403 396.988983,248.233810 
	C395.179779,250.421890 394.242065,253.330505 392.212585,256.039551 
	C389.468506,261.743591 386.205444,267.261444 384.079315,273.187195 
	C378.106903,289.832794 380.340088,307.247925 380.026886,324.409454 
	C379.968384,327.613861 381.483856,329.429199 385.900299,329.000000 
	C435.942688,328.991791 485.985077,328.983612 536.835632,328.990356 
	C538.981384,329.042999 541.272644,329.299469 541.044617,325.062714 
	C541.016846,313.029785 540.989075,300.996857 540.966064,288.131744 
z"/>
<path fill="#FA4939" opacity="1.000000" stroke="none" 
	d="
M809.179504,364.482483 
	C806.394104,368.646729 803.157166,371.924866 797.490845,371.223541 
	C796.308716,371.077240 795.024780,371.753418 793.324829,371.593903 
	C786.638855,368.254791 782.929077,363.463623 782.140320,356.620758 
	C781.617371,352.083832 781.349854,347.517456 780.919617,342.564423 
	C780.341919,339.259979 780.133179,336.250854 779.225891,333.469574 
	C775.912415,323.311798 772.870605,313.018463 768.748535,303.186157 
	C765.417969,295.242035 761.064392,287.642609 756.419678,280.365814 
	C753.693970,276.095520 749.510986,272.755402 745.983582,268.996887 
	C745.983582,268.996857 746.004333,268.997437 746.003784,268.647949 
	C745.310486,267.550232 744.617737,266.802002 743.924988,266.053772 
	C741.787598,263.779968 739.650208,261.506165 737.211670,258.695374 
	C735.560242,256.528687 734.468262,254.547852 732.814209,253.331161 
	C726.283569,248.527252 719.899841,243.382935 712.853516,239.456070 
	C703.927368,234.481506 694.713867,229.662872 685.071411,226.421997 
	C672.299683,222.129349 658.992920,219.428421 645.916138,216.043442 
	C645.916138,216.043442 645.966736,215.998154 645.975952,215.629211 
	C645.798462,214.461487 645.752319,213.594345 645.402527,212.874832 
	C642.822388,207.567169 643.391907,202.503082 646.810242,197.854858 
	C650.406189,192.965210 655.681152,191.050842 661.359802,192.186234 
	C672.530762,194.419785 683.567017,197.327133 694.658997,199.955734 
	C696.862549,200.629608 699.066101,201.303467 701.784546,202.237671 
	C702.536621,202.750305 702.828125,202.885605 703.174011,202.903870 
	C703.174011,202.903870 703.055664,202.922394 703.214844,203.178802 
	C718.810425,211.174347 734.189575,218.993164 747.530884,230.211777 
	C749.062988,231.500076 751.196289,232.073410 753.050842,232.978241 
	C753.050842,232.978241 753.000244,233.000214 753.023682,233.325546 
	C755.729492,236.080734 758.411865,238.510590 761.094238,240.940460 
	C761.094238,240.940475 761.016235,240.987839 761.039551,241.306122 
	C762.433594,243.047287 763.804260,244.470169 765.174927,245.893051 
	C765.174927,245.893051 765.082886,245.937668 765.084351,246.248535 
	C768.518311,251.174576 771.845764,255.872528 775.401794,260.390533 
	C790.497498,279.569763 799.861389,301.459564 805.945496,324.883270 
	C807.582275,331.184906 808.789246,337.598114 810.193604,343.960083 
	C810.193604,343.960083 810.080688,343.948059 810.058716,344.374420 
	C809.751038,351.361359 809.465271,357.921906 809.179504,364.482483 
z"/>
<path fill="#FA4939" opacity="1.000000" stroke="none" 
	d="
M737.277588,327.941864 
	C738.548279,333.316589 739.818970,338.691315 741.050903,344.885437 
	C741.010986,348.370483 741.142883,351.044373 740.979736,353.700134 
	C740.674683,358.666748 738.119751,362.450226 733.983826,364.958099 
	C725.009033,370.400269 715.047424,362.216125 713.992615,353.325256 
	C712.486328,340.628571 709.076172,328.488770 701.458435,318.069641 
	C690.062622,302.483124 674.303040,293.199310 655.896729,288.151550 
	C647.311829,285.797211 642.081421,277.509827 644.255920,269.641602 
	C646.475403,261.610626 656.340210,258.217926 663.757507,260.989471 
	C676.525940,265.760529 689.048523,270.907318 700.010193,279.265961 
	C701.348633,280.286591 703.364746,280.418610 705.066772,280.962463 
	C705.066772,280.962433 705.003540,280.993164 705.027588,281.314056 
	C709.923950,286.672913 714.785767,291.721130 719.697144,296.720825 
	C719.965515,296.993958 720.646606,296.861694 721.135620,296.918121 
	C721.135620,296.918121 721.041626,296.958923 721.033081,297.267212 
	C721.593506,299.252533 721.889648,301.093323 722.780396,302.577118 
	C725.967346,307.885986 729.479309,313.001190 732.620361,318.335571 
	C734.420105,321.392059 735.741089,324.730408 737.277588,327.941864 
z"/>
<path fill="#D84A3F" opacity="1.000000" stroke="none" 
	d="
M704.936279,280.651703 
	C703.364746,280.418610 701.348633,280.286591 700.010193,279.265961 
	C689.048523,270.907318 676.525940,265.760529 663.757507,260.989471 
	C656.340210,258.217926 646.475403,261.610626 644.255920,269.641602 
	C642.081421,277.509827 647.311829,285.797211 655.896729,288.151550 
	C674.303040,293.199310 690.062622,302.483124 701.458435,318.069641 
	C709.076172,328.488770 712.486328,340.628571 713.992615,353.325256 
	C715.047424,362.216125 725.009033,370.400269 733.983826,364.958099 
	C738.119751,362.450226 740.674683,358.666748 740.979736,353.700134 
	C741.142883,351.044373 741.010986,348.370483 741.046631,345.228027 
	C744.405701,350.927826 743.629211,356.988525 739.791260,362.463165 
	C736.188293,367.602661 730.674988,369.010284 724.699280,367.903198 
	C718.039307,366.669342 714.456787,361.968597 712.853699,355.786682 
	C710.979492,348.559509 710.263916,340.946075 707.693054,334.000916 
	C698.801636,309.981506 679.840820,297.216522 656.370544,290.094910 
	C645.495850,286.795135 640.227295,279.559753 642.512756,270.059570 
	C644.901611,260.129578 655.050720,255.599014 666.659241,259.991608 
	C680.210205,265.119263 693.282043,271.326630 704.936279,280.651703 
z"/>
<path fill="#D23A2D" opacity="1.000000" stroke="none" 
	d="
M272.961517,716.021423 
	C402.938416,716.013489 532.915344,716.004761 662.892212,716.010864 
	C664.043396,716.010925 665.194641,716.211365 666.654236,716.592285 
	C650.318848,716.922119 633.675110,717.025330 617.031311,717.026184 
	C502.667664,717.032104 388.304047,717.016541 273.465149,716.728271 
	C272.989868,716.448669 272.961517,716.021423 272.961517,716.021423 
z"/>
<path fill="#D84A3F" opacity="1.000000" stroke="none" 
	d="
M545.003479,225.632812 
	C543.593750,225.017853 541.845947,224.324097 540.663147,223.089172 
	C528.541016,210.433121 514.373169,200.510818 498.070435,194.456955 
	C488.602509,190.941132 478.233398,189.430252 468.126221,188.158936 
	C453.783936,186.354935 439.516937,188.697357 426.040894,193.388870 
	C412.906677,197.961395 400.810089,205.008133 390.175171,214.250076 
	C388.867004,215.386902 387.179230,216.086884 385.296997,216.974548 
	C395.468719,205.662155 408.552612,198.163071 422.855835,193.064774 
	C467.795807,177.046204 512.522034,189.031769 545.003479,225.632812 
z"/>
<path fill="#D84A3F" opacity="1.000000" stroke="none" 
	d="
M810.164124,343.581909 
	C808.789246,337.598114 807.582275,331.184906 805.945496,324.883270 
	C799.861389,301.459564 790.497498,279.569763 775.401794,260.390533 
	C771.845764,255.872528 768.518311,251.174576 765.098267,246.199341 
	C772.492493,255.387817 780.665344,264.436157 787.085999,274.592224 
	C799.277466,293.876617 806.473267,315.242554 810.097229,337.771790 
	C810.381470,339.538727 810.134705,341.391113 810.164124,343.581909 
z"/>
<path fill="#D84A3F" opacity="1.000000" stroke="none" 
	d="
M351.029297,325.000061 
	C350.259430,326.323120 349.489594,327.646149 348.066895,328.689240 
	C332.495880,328.304230 317.577789,328.189178 302.659454,328.132355 
	C302.089478,328.130188 301.517334,328.689240 300.946198,328.986786 
	C288.765259,330.519867 278.549347,335.848969 272.504700,346.614410 
	C269.349640,352.233551 268.474762,359.133026 266.069519,365.725952 
	C265.569031,365.997742 265.107788,366.011780 265.107788,366.011780 
	C265.172760,346.026855 280.475098,327.291718 304.683350,327.129730 
	C317.677185,327.042816 330.678925,326.908844 343.663269,327.279938 
	C348.478546,327.417572 349.545624,325.786560 349.472809,321.329834 
	C349.301422,310.841644 349.638184,300.345184 349.928497,289.939331 
	C350.080994,299.963257 350.028778,309.900330 350.111115,319.836273 
	C350.125397,321.559937 350.708801,323.278931 351.029297,325.000061 
z"/>
<path fill="#D84A3F" opacity="1.000000" stroke="none" 
	d="
M646.006104,216.378662 
	C658.992920,219.428421 672.299683,222.129349 685.071411,226.421997 
	C694.713867,229.662872 703.927368,234.481506 712.853516,239.456070 
	C719.899841,243.382935 726.283569,248.527252 732.814209,253.331161 
	C734.468262,254.547852 735.560242,256.528687 736.936523,258.498474 
	C728.579468,252.685822 720.514526,246.030029 711.746216,240.486832 
	C694.350708,229.489578 674.857666,224.258194 654.696289,221.029984 
	C651.676575,220.546478 648.955322,218.199051 646.006104,216.378662 
z"/>
<path fill="#D23A2D" opacity="1.000000" stroke="none" 
	d="
M653.246033,336.327087 
	C649.989136,335.115326 646.711731,333.298553 643.213806,332.158051 
	C639.062073,330.804352 634.736145,329.232117 630.458618,329.148926 
	C613.015564,328.809631 595.562134,329.002380 578.112488,329.000641 
	C570.331726,328.999847 570.340820,328.343201 570.813599,321.400360 
	C571.410645,312.632965 570.961365,303.794342 570.991333,294.234650 
	C571.289734,293.004852 571.560181,292.526825 571.830688,292.048828 
	C571.830688,303.483368 571.830688,314.917938 571.830688,326.898193 
	C573.884277,327.041077 575.453918,327.243988 577.023743,327.245117 
	C593.295105,327.256836 609.566528,327.236908 625.837891,327.223938 
	C635.882996,327.215912 645.303833,329.141052 653.246033,336.327087 
z"/>
<path fill="#D84A3F" opacity="1.000000" stroke="none" 
	d="
M746.083008,269.324036 
	C749.510986,272.755402 753.693970,276.095520 756.419678,280.365814 
	C761.064392,287.642609 765.417969,295.242035 768.748535,303.186157 
	C772.870605,313.018463 775.912415,323.311798 779.225891,333.469574 
	C780.133179,336.250854 780.341919,339.259979 780.679260,342.755859 
	C780.309387,343.930878 780.131470,344.514557 779.953491,345.098267 
	C777.509094,335.477234 775.619934,325.671753 772.499451,316.275238 
	C766.791016,299.085480 757.561951,283.722382 746.083008,269.324036 
z"/>
<path fill="#D84A3F" opacity="1.000000" stroke="none" 
	d="
M384.640808,217.027206 
	C384.011841,218.737625 383.430176,220.909302 382.058746,222.304825 
	C367.569489,237.048737 358.541290,254.715347 353.650452,274.641174 
	C353.182190,276.548981 352.920319,278.507477 352.048492,280.717041 
	C351.534363,280.991699 351.057037,281.007660 351.057037,281.007660 
	C353.601593,260.531555 362.310516,242.787628 375.203400,226.954117 
	C378.018890,223.496506 381.270599,220.394104 384.640808,217.027206 
z"/>
<path fill="#D84A3F" opacity="1.000000" stroke="none" 
	d="
M272.524750,716.011902 
	C272.961517,716.021423 272.989868,716.448669 273.001404,716.662476 
	C250.026993,718.255188 231.745804,708.595581 224.531326,689.941833 
	C221.994049,683.381470 222.196564,675.761475 221.310486,668.248108 
	C221.924927,670.935974 222.414734,673.995972 222.822784,677.066833 
	C225.430283,696.690552 237.006134,708.371399 255.458755,713.983521 
	C256.089172,714.175232 256.694183,714.450378 257.862366,715.087524 
	C259.609772,715.340271 260.805847,715.192139 262.001953,715.043945 
	C265.363953,715.363464 268.725983,715.682922 272.524750,716.011902 
z"/>
<path fill="#D84A3F" opacity="1.000000" stroke="none" 
	d="
M571.914612,291.602539 
	C571.560181,292.526825 571.289734,293.004852 570.991943,293.769531 
	C570.646545,292.981750 570.090881,291.917297 570.045227,290.831421 
	C569.122986,268.875275 561.340576,249.540695 547.945618,232.285538 
	C546.670349,230.642761 545.974548,228.550140 545.027893,226.292450 
	C556.494995,238.149033 563.829163,252.674377 568.063354,268.707397 
	C569.996216,276.026276 570.724121,283.663422 571.914612,291.602539 
z"/>
<path fill="#D23A2D" opacity="1.000000" stroke="none" 
	d="
M694.424805,199.755310 
	C683.567017,197.327133 672.530762,194.419785 661.359802,192.186234 
	C655.681152,191.050842 650.406189,192.965210 646.810242,197.854858 
	C643.391907,202.503082 642.822388,207.567169 645.402527,212.874832 
	C645.752319,213.594345 645.798462,214.461487 645.980469,215.662872 
	C641.234131,211.628113 641.023926,206.119003 643.194946,200.675064 
	C645.575439,194.705444 650.429810,190.278641 656.925720,191.122452 
	C668.183777,192.584854 679.275024,195.353882 690.413574,197.683212 
	C691.744812,197.961594 692.935059,198.914597 694.424805,199.755310 
z"/>
<path fill="#D84A3F" opacity="1.000000" stroke="none" 
	d="
M752.912231,232.672729 
	C751.196289,232.073410 749.062988,231.500076 747.530884,230.211777 
	C734.189575,218.993164 718.810425,211.174347 703.219971,203.119141 
	C708.712280,205.109146 714.824341,206.674545 719.909668,209.872665 
	C731.138733,216.934525 741.850708,224.818573 752.912231,232.672729 
z"/>
<path fill="#D84A3F" opacity="1.000000" stroke="none" 
	d="
M237.106644,558.430847 
	C237.472076,560.296509 238.196808,562.621216 237.892242,564.802307 
	C235.657135,580.807922 233.221832,596.785583 230.805176,612.765381 
	C230.746521,613.153381 230.172531,613.463379 229.462494,613.897339 
	C230.821533,601.676270 232.543884,589.365601 234.297897,577.059570 
	C235.164917,570.976562 236.090347,564.901855 237.106644,558.430847 
z"/>
<path fill="#D84A3F" opacity="1.000000" stroke="none" 
	d="
M696.019287,566.689087 
	C695.399902,566.189819 694.514526,565.412964 694.396423,564.533142 
	C692.208923,548.231750 690.106934,531.918884 688.020142,515.604248 
	C687.939880,514.976379 688.191528,514.306091 688.531982,513.343018 
	C691.255737,529.822632 693.744690,546.613525 696.193665,563.410278 
	C696.333618,564.370300 696.145813,565.377991 696.019287,566.689087 
z"/>
<path fill="#D84A3F" opacity="1.000000" stroke="none" 
	d="
M710.406372,681.975403 
	C710.598755,664.534485 706.271667,647.469849 704.254150,630.144104 
	C704.185120,629.551147 704.518127,628.911316 704.982300,628.063721 
	C707.315430,645.032471 709.341370,662.229553 711.306335,679.433594 
	C711.392944,680.192078 710.921875,681.014160 710.406372,681.975403 
z"/>
<path fill="#D23A2D" opacity="1.000000" stroke="none" 
	d="
M265.015625,366.404175 
	C265.107788,366.011780 265.569031,365.997742 265.800110,365.995819 
	C264.726410,375.484039 263.411743,384.972839 262.120453,394.464813 
	C261.257721,400.806366 260.428314,407.152466 259.288300,413.481476 
	C258.712616,412.981476 258.432648,412.496490 258.152710,412.011505 
	C260.061157,399.218842 261.968414,386.425995 263.879150,373.633698 
	C264.219727,371.353516 264.574951,369.075562 265.015625,366.404175 
z"/>
<path fill="#D84A3F" opacity="1.000000" stroke="none" 
	d="
M247.426834,488.235901 
	C247.401367,493.034515 247.478622,498.180389 246.863647,503.242126 
	C245.767166,512.266724 244.267014,521.242737 242.877151,530.230042 
	C242.791245,530.785645 242.196579,531.262573 241.464783,531.856689 
	C243.133209,517.473267 245.175446,503.009277 247.426834,488.235901 
z"/>
<path fill="#D84A3F" opacity="1.000000" stroke="none" 
	d="
M737.270874,327.570404 
	C735.741089,324.730408 734.420105,321.392059 732.620361,318.335571 
	C729.479309,313.001190 725.967346,307.885986 722.780396,302.577118 
	C721.889648,301.093323 721.593506,299.252533 721.056519,297.221619 
	C728.758118,305.763428 734.902039,315.472748 737.270874,327.570404 
z"/>
<path fill="#D84A3F" opacity="1.000000" stroke="none" 
	d="
M676.170105,432.584564 
	C675.335999,428.699768 674.234924,424.479004 673.628479,420.188324 
	C672.294312,410.748108 671.209900,401.272614 670.051270,391.346405 
	C671.813721,401.090363 673.628113,411.286896 675.239807,421.515381 
	C675.795410,425.041626 675.846191,428.647400 676.170105,432.584564 
z"/>
<path fill="#D84A3F" opacity="1.000000" stroke="none" 
	d="
M703.876831,616.661682 
	C702.722839,614.281616 700.986816,611.632141 700.626892,608.807251 
	C699.484009,599.838562 698.854309,590.804443 698.059082,581.332214 
	C699.833984,591.413086 701.576660,601.957336 703.316895,612.501953 
	C703.526306,613.770813 703.722412,615.041870 703.876831,616.661682 
z"/>
<path fill="#D84A3F" opacity="1.000000" stroke="none" 
	d="
M258.091980,412.427795 
	C258.432648,412.496490 258.712616,412.981476 259.013275,413.760376 
	C257.352753,425.631470 255.671524,437.208649 253.640656,448.881226 
	C254.652878,438.725891 256.017609,428.475555 257.374023,418.224121 
	C257.610992,416.433136 257.813049,414.637512 258.091980,412.427795 
z"/>
<path fill="#D84A3F" opacity="1.000000" stroke="none" 
	d="
M670.424316,716.953064 
	C671.735596,716.014282 673.393127,714.906006 675.199646,714.156921 
	C680.088623,712.129456 685.067383,710.318481 689.956238,708.290527 
	C692.147705,707.381409 694.209229,706.159241 696.717529,705.071655 
	C691.436890,711.174500 684.005676,713.856262 676.197144,715.787720 
	C674.423828,716.226379 672.625366,716.563538 670.424316,716.953064 
z"/>
<path fill="#D84A3F" opacity="1.000000" stroke="none" 
	d="
M670.163513,390.609863 
	C669.463684,389.889557 668.329651,388.870880 668.172668,387.719055 
	C667.001587,379.127289 666.024048,370.509155 665.256042,361.458466 
	C665.708923,361.004333 665.891541,360.991028 666.074219,360.977692 
	C667.443420,370.735077 668.812561,380.492432 670.163513,390.609863 
z"/>
<path fill="#D23A2D" opacity="1.000000" stroke="none" 
	d="
M779.920288,345.544983 
	C780.131470,344.514557 780.309387,343.930878 780.727661,343.155701 
	C781.349854,347.517456 781.617371,352.083832 782.140320,356.620758 
	C782.929077,363.463623 786.638855,368.254791 792.923706,371.473328 
	C785.864197,369.970245 781.709412,365.342560 781.011292,358.390533 
	C780.596680,354.261597 780.259216,350.124908 779.920288,345.544983 
z"/>
<path fill="#D84A3F" opacity="1.000000" stroke="none" 
	d="
M697.387512,705.009644 
	C699.469543,701.547302 702.144165,698.137878 704.203430,694.390259 
	C706.300964,690.572998 707.792847,686.423035 709.864685,682.226501 
	C709.748047,691.691040 704.260132,698.592041 697.387512,705.009644 
z"/>
<path fill="#D84A3F" opacity="1.000000" stroke="none" 
	d="
M721.056641,296.584381 
	C720.646606,296.861694 719.965515,296.993958 719.697144,296.720825 
	C714.785767,291.721130 709.923950,286.672913 705.043335,281.282593 
	C710.349243,286.037048 715.663391,291.143829 721.056641,296.584381 
z"/>
<path fill="#D23A2D" opacity="1.000000" stroke="none" 
	d="
M350.957214,281.396423 
	C351.057037,281.007660 351.534363,280.991699 351.773254,280.991058 
	C351.679718,295.347809 351.347260,309.705200 351.022034,324.531311 
	C350.708801,323.278931 350.125397,321.559937 350.111115,319.836273 
	C350.028778,309.900330 350.080994,299.963257 350.062683,289.566254 
	C350.310974,286.665680 350.584167,284.225464 350.957214,281.396423 
z"/>
<path fill="#D23A2D" opacity="1.000000" stroke="none" 
	d="
M685.129272,492.658325 
	C684.015869,486.078613 682.911377,479.156067 682.133545,472.025269 
	C683.352905,478.649841 684.245483,485.482635 685.129272,492.658325 
z"/>
<path fill="#D84A3F" opacity="1.000000" stroke="none" 
	d="
M809.482117,364.262207 
	C809.465271,357.921906 809.751038,351.361359 810.078979,344.321350 
	C812.048950,350.609222 813.001038,357.360291 809.482117,364.262207 
z"/>
<path fill="#D23A2D" opacity="1.000000" stroke="none" 
	d="
M680.879272,459.524139 
	C679.900208,455.232361 678.959839,450.519348 678.040039,445.346527 
	C679.013123,449.625458 679.965637,454.364197 680.879272,459.524139 
z"/>
<path fill="#D84A3F" opacity="1.000000" stroke="none" 
	d="
M760.984680,240.624634 
	C758.411865,238.510590 755.729492,236.080734 753.033569,233.299835 
	C755.638306,235.402130 758.256714,237.855484 760.984680,240.624634 
z"/>
<path fill="#D23A2D" opacity="1.000000" stroke="none" 
	d="
M678.133667,444.635651 
	C677.429382,441.246216 676.726196,437.500488 676.058472,433.300293 
	C676.774170,436.657013 677.454529,440.468170 678.133667,444.635651 
z"/>
<path fill="#D84A3F" opacity="1.000000" stroke="none" 
	d="
M698.183838,580.629028 
	C697.449280,576.885620 696.735168,572.801208 696.043823,568.258240 
	C696.779175,571.962463 697.491699,576.125305 698.183838,580.629028 
z"/>
<path fill="#D23A2D" opacity="1.000000" stroke="none" 
	d="
M664.233032,352.526520 
	C662.892456,350.420471 661.524719,347.937286 660.234009,345.066589 
	C661.609314,347.169159 662.907593,349.659302 664.233032,352.526520 
z"/>
<path fill="#D23A2D" opacity="1.000000" stroke="none" 
	d="
M666.096558,360.572754 
	C665.891541,360.991028 665.708923,361.004333 665.251526,361.029724 
	C664.670471,358.586304 664.364136,356.130859 664.095947,353.247253 
	C664.795715,355.268677 665.457336,357.718231 666.096558,360.572754 
z"/>
<path fill="#D84A3F" opacity="1.000000" stroke="none" 
	d="
M765.108276,245.559753 
	C763.804260,244.470169 762.433594,243.047287 761.060181,241.265396 
	C762.385437,242.346420 763.713501,243.786438 765.108276,245.559753 
z"/>
<path fill="#D23A2D" opacity="1.000000" stroke="none" 
	d="
M685.981567,500.592773 
	C685.617432,498.549866 685.313293,496.156006 685.032959,493.327271 
	C685.385010,495.342194 685.713196,497.792023 685.981567,500.592773 
z"/>
<path fill="#D23A2D" opacity="1.000000" stroke="none" 
	d="
M660.356812,344.430084 
	C659.311096,343.640442 658.229309,342.517517 657.237183,341.031616 
	C658.324768,341.811340 659.322754,342.954071 660.356812,344.430084 
z"/>
<path fill="#D84A3F" opacity="1.000000" stroke="none" 
	d="
M743.901733,266.373291 
	C744.617737,266.802002 745.310486,267.550232 746.002563,268.658325 
	C745.294128,268.243011 744.586304,267.467896 743.901733,266.373291 
z"/>
<path fill="#D23A2D" opacity="1.000000" stroke="none" 
	d="
M656.366699,339.228851 
	C655.706421,339.110840 654.968079,338.708618 654.364014,337.923462 
	C655.095093,338.008575 655.691895,338.476624 656.366699,339.228851 
z"/>
<path fill="#D23A2D" opacity="1.000000" stroke="none" 
	d="
M681.906128,467.668762 
	C681.451599,467.416748 681.001160,466.884521 680.766846,466.187012 
	C681.291992,466.477356 681.601074,466.932983 681.906128,467.668762 
z"/>
<path fill="#D84A3F" opacity="1.000000" stroke="none" 
	d="
M703.076294,202.646973 
	C702.828125,202.885605 702.536621,202.750305 702.174683,202.286987 
	C702.359497,202.180664 702.669006,202.285355 703.076294,202.646973 
z"/>
<path fill="#D23A2D" opacity="1.000000" stroke="none" 
	d="
M657.304016,340.480347 
	C656.989258,340.616364 656.637024,340.448364 656.276978,339.965454 
	C656.601624,339.825806 656.934143,340.001068 657.304016,340.480347 
z"/>
<path fill="#D23A2D" opacity="1.000000" stroke="none" 
	d="
M654.321350,337.418762 
	C653.995178,337.575195 653.641907,337.425568 653.249023,336.968079 
	C653.571045,336.811066 653.932678,336.961884 654.321350,337.418762 
z"/>
<path fill="#FEFDFA" opacity="1.000000" stroke="none" 
	d="
M437.956238,433.033661 
	C437.956238,433.033661 438.231750,433.239990 438.583008,433.506226 
	C447.592224,438.918121 456.250214,444.063812 464.908173,449.209503 
	C464.908173,449.209503 464.907745,449.105835 464.993286,449.432800 
	C473.037842,454.536469 480.996857,459.313141 488.955872,464.089813 
	C488.955872,464.089813 488.986206,464.014709 489.109680,464.332123 
	C512.773682,479.108215 536.341736,493.522400 559.842407,508.045654 
	C570.461853,514.608337 570.697998,528.385681 560.367188,535.384033 
	C556.118774,538.262085 551.664490,540.834351 547.347229,543.613098 
	C538.476135,549.322815 529.634338,555.077881 520.780457,560.814331 
	C520.780457,560.814331 520.880005,560.866150 520.518127,560.856934 
	C511.879852,566.170044 503.603424,571.492310 495.326996,576.814575 
	C495.326996,576.814575 495.197205,576.755493 494.773438,576.852417 
	C484.477234,583.094421 474.571411,589.186646 464.741211,595.398621 
	C453.672455,602.393127 442.671875,609.495544 431.641632,616.551025 
	C431.641632,616.551025 431.914856,616.919678 431.433197,616.811768 
	C420.260223,623.295654 409.704559,630.121582 398.841400,636.416809 
	C386.805298,643.391479 376.517578,638.549683 373.657104,624.497681 
	C373.738464,556.365723 373.747131,488.693756 373.908936,420.672028 
	C374.434814,418.568970 374.807587,416.815674 375.180359,415.062347 
	C375.180389,415.062347 375.080902,415.065735 375.402344,414.993530 
	C376.209564,413.984161 376.695343,413.047028 377.181152,412.109924 
	C377.181152,412.109924 377.087646,412.067780 377.348145,412.034210 
	C377.791260,411.689575 377.973907,411.378540 378.156494,411.067505 
	C378.156494,411.067474 378.055420,411.055969 378.329529,411.029358 
	C378.791138,410.695251 378.978607,410.387787 379.166077,410.080353 
	C379.166107,410.080353 379.050140,410.083466 379.448608,410.101288 
	C386.876678,405.860413 393.916199,406.821869 400.960114,410.078979 
	C400.960114,410.078979 400.996674,410.010803 401.120056,410.328796 
	C413.481049,418.109100 425.718628,425.571381 437.956238,433.033661 
z"/>
<path fill="#D23A2D" opacity="1.000000" stroke="none" 
	d="
M373.755829,421.021759 
	C373.747131,488.693756 373.738464,556.365723 373.399750,624.499390 
	C372.727875,624.982605 372.386017,625.004211 372.044159,625.025818 
	C372.039032,557.327698 372.033875,489.629639 372.324646,421.466919 
	C372.998962,421.008759 373.377411,421.015259 373.755829,421.021759 
z"/>
<path fill="#D84A3F" opacity="1.000000" stroke="none" 
	d="
M521.169922,560.877075 
	C529.634338,555.077881 538.476135,549.322815 547.347229,543.613098 
	C551.664490,540.834351 556.118774,538.262085 560.367188,535.384033 
	C570.697998,528.385681 570.461853,514.608337 559.842407,508.045654 
	C536.341736,493.522400 512.773682,479.108215 489.073120,464.349579 
	C493.056030,466.003052 497.403900,467.617004 501.304321,469.972076 
	C514.224243,477.773224 526.970337,485.861877 539.808228,493.799683 
	C547.668884,498.660065 555.793213,503.128815 563.404541,508.348724 
	C572.248291,514.413879 571.480286,529.969971 562.152893,536.208252 
	C554.019653,541.647888 545.647400,546.736145 537.298401,551.845032 
	C532.131653,555.006714 526.810974,557.916809 521.169922,560.877075 
z"/>
<path fill="#D84A3F" opacity="1.000000" stroke="none" 
	d="
M541.025818,325.999756 
	C541.272644,329.299469 538.981384,329.042999 536.125671,328.698425 
	C534.434998,328.283875 533.454407,328.054382 532.473633,328.054016 
	C484.702789,328.035065 436.931915,328.027710 389.161102,328.074554 
	C387.758270,328.075958 386.355988,328.671631 384.953461,328.990204 
	C381.483856,329.429199 379.968384,327.613861 380.026886,324.409454 
	C380.340088,307.247925 378.106903,289.832794 384.079315,273.187195 
	C386.205444,267.261444 389.468506,261.743591 392.611877,256.022278 
	C393.011200,256.004974 393.120209,256.102386 393.043549,256.451630 
	C390.724609,261.589966 388.179688,266.263794 386.302429,271.191956 
	C382.272736,281.770752 381.694519,292.872833 381.922821,304.074677 
	C382.077484,311.663300 381.952332,319.257629 381.952332,326.712982 
	C383.166412,326.987183 383.643158,327.189056 384.119965,327.189178 
	C434.722443,327.203094 485.324890,327.211243 535.927307,327.151550 
	C537.300110,327.149933 538.671997,326.406647 540.289673,326.008423 
	C540.535034,326.007599 541.025818,325.999756 541.025818,325.999756 
z"/>
<path fill="#D84A3F" opacity="1.000000" stroke="none" 
	d="
M429.936249,223.940399 
	C432.183746,222.943604 434.342316,221.506226 436.695129,221.031235 
	C444.258972,219.504257 451.881439,217.325897 459.505096,217.226593 
	C477.187256,216.996307 493.850250,221.225571 508.028778,232.487839 
	C512.583191,236.105453 516.657776,240.327148 520.847290,244.768402 
	C520.742737,245.264328 520.433777,245.576904 520.158691,245.392685 
	C498.301636,222.431061 472.120911,214.595245 441.545654,221.169205 
	C437.697815,221.996521 433.917969,223.139877 430.064697,224.087082 
	C430.022827,224.037369 429.936249,223.940384 429.936249,223.940399 
z"/>
<path fill="#D84A3F" opacity="1.000000" stroke="none" 
	d="
M372.039978,625.411011 
	C372.386017,625.004211 372.727875,624.982605 373.327087,624.959290 
	C376.517578,638.549683 386.805298,643.391479 398.841400,636.416809 
	C409.704559,630.121582 420.260223,623.295654 431.293823,616.624878 
	C430.647461,617.742493 429.876160,619.271362 428.635590,620.082642 
	C419.486542,626.065247 410.158875,631.776611 401.052094,637.821472 
	C389.341675,645.594604 375.516632,639.948425 372.039978,625.411011 
z"/>
<path fill="#D84A3F" opacity="1.000000" stroke="none" 
	d="
M432.011536,616.675903 
	C442.671875,609.495544 453.672455,602.393127 464.741211,595.398621 
	C474.571411,589.186646 484.477234,583.094421 494.713379,576.890869 
	C494.089233,578.031311 493.326782,579.586609 492.079590,580.375916 
	C474.167145,591.712402 456.202820,602.967224 438.206421,614.170227 
	C436.413666,615.286255 434.330078,615.935120 432.011536,616.675903 
z"/>
<path fill="#D23A2D" opacity="1.000000" stroke="none" 
	d="
M385.426880,328.995117 
	C386.355988,328.671631 387.758270,328.075958 389.161102,328.074554 
	C436.931915,328.027710 484.702789,328.035065 532.473633,328.054016 
	C533.454407,328.054382 534.434998,328.283875 535.721558,328.690979 
	C485.985077,328.983612 435.942688,328.991791 385.426880,328.995117 
z"/>
<path fill="#D84A3F" opacity="1.000000" stroke="none" 
	d="
M392.956940,255.955994 
	C394.242065,253.330505 395.179779,250.421890 396.988983,248.233810 
	C405.770233,237.613403 415.508942,228.151596 429.561401,223.962753 
	C429.936249,223.940384 430.022827,224.037369 429.908478,224.389832 
	C414.600586,231.723694 402.519531,242.344971 393.120209,256.102386 
	C393.120209,256.102386 393.011200,256.004974 392.956940,255.955994 
z"/>
<path fill="#D84A3F" opacity="1.000000" stroke="none" 
	d="
M520.898071,245.108978 
	C529.021912,251.728546 533.264587,260.925293 536.767456,270.363708 
	C538.868835,276.025909 539.612305,282.192078 540.659790,288.552948 
	C539.947571,288.987854 539.541504,289.001556 539.085693,288.601715 
	C538.826416,286.548218 538.675171,284.898376 538.398254,283.269897 
	C535.973572,269.010193 529.263123,256.787323 520.433777,245.576904 
	C520.433777,245.576904 520.742737,245.264328 520.898071,245.108978 
z"/>
<path fill="#D84A3F" opacity="1.000000" stroke="none" 
	d="
M437.929321,432.681396 
	C425.718628,425.571381 413.481049,418.109100 401.085815,410.346802 
	C404.500092,411.648682 408.258392,412.935242 411.607300,414.914490 
	C420.020599,419.886841 428.260193,425.154358 436.528778,430.367981 
	C437.151337,430.760468 437.452057,431.663422 437.929321,432.681396 
z"/>
<path fill="#D84A3F" opacity="1.000000" stroke="none" 
	d="
M495.732422,576.858521 
	C503.603424,571.492310 511.879852,566.170044 520.517822,560.800903 
	C520.457825,561.637695 520.277344,562.928650 519.577820,563.342773 
	C511.810822,567.940979 503.963470,572.403442 495.732422,576.858521 
z"/>
<path fill="#D84A3F" opacity="1.000000" stroke="none" 
	d="
M488.939087,463.732422 
	C480.996857,459.313141 473.037842,454.536469 464.945862,449.453735 
	C467.484955,450.237701 470.372284,450.982574 472.785553,452.487549 
	C478.287903,455.918762 483.557892,459.722595 488.939087,463.732422 
z"/>
<path fill="#D84A3F" opacity="1.000000" stroke="none" 
	d="
M464.821442,448.868347 
	C456.250214,444.063812 447.592224,438.918121 438.753693,433.484253 
	C444.945740,436.534760 451.384216,439.755859 457.658783,443.269623 
	C460.201447,444.693542 462.386780,446.755554 464.821442,448.868347 
z"/>
<path fill="#D23A2D" opacity="1.000000" stroke="none" 
	d="
M301.420349,328.992737 
	C301.517334,328.689240 302.089478,328.130188 302.659454,328.132355 
	C317.577789,328.189178 332.495880,328.304230 347.718231,328.695007 
	C332.646454,328.986755 317.270477,328.992737 301.420349,328.992737 
z"/>
<path fill="#D23A2D" opacity="1.000000" stroke="none" 
	d="
M539.135498,289.015259 
	C539.541504,289.001556 539.947571,288.987854 540.657471,288.969055 
	C540.989075,300.996857 541.016846,313.029785 541.035217,325.531250 
	C541.025818,325.999756 540.535034,326.007599 540.227417,325.542633 
	C539.904297,323.260620 539.911682,321.442993 539.869324,319.626587 
	C539.631287,309.422668 539.381348,299.219025 539.135498,289.015259 
z"/>
<path fill="#D84A3F" opacity="1.000000" stroke="none" 
	d="
M400.928650,409.709473 
	C393.916199,406.821869 386.876678,405.860413 379.463745,410.157288 
	C384.006836,404.602081 394.913605,404.174377 400.928650,409.709473 
z"/>
<path fill="#D84A3F" opacity="1.000000" stroke="none" 
	d="
M373.908936,420.672028 
	C373.377411,421.015259 372.998962,421.008759 372.337708,420.998047 
	C372.870361,419.091339 373.685791,417.188904 374.840820,415.174377 
	C374.807587,416.815674 374.434814,418.568970 373.908936,420.672028 
z"/>
<path fill="#D84A3F" opacity="1.000000" stroke="none" 
	d="
M376.809082,412.119568 
	C376.695343,413.047028 376.209564,413.984161 375.419556,415.040222 
	C375.555908,414.149139 375.996460,413.139160 376.809082,412.119568 
z"/>
<path fill="#D23A2D" opacity="1.000000" stroke="none" 
	d="
M261.600037,715.028931 
	C260.805847,715.192139 259.609772,715.340271 258.194641,715.239746 
	C259.049805,714.998657 260.123962,715.006226 261.600037,715.028931 
z"/>
<path fill="#D84A3F" opacity="1.000000" stroke="none" 
	d="
M378.900726,410.160919 
	C378.978607,410.387787 378.791138,410.695251 378.335754,411.079834 
	C378.257050,410.851807 378.446198,410.546631 378.900726,410.160919 
z"/>
<path fill="#D84A3F" opacity="1.000000" stroke="none" 
	d="
M377.892395,411.154053 
	C377.973907,411.378540 377.791260,411.689575 377.342041,412.085114 
	C377.259705,411.859924 377.443970,411.550262 377.892395,411.154053 
z"/>
<path fill="#FFFDFB" opacity="1.000000" stroke="none" 
	d="
M539.085693,288.601746 
	C539.381348,299.219025 539.631287,309.422668 539.869324,319.626587 
	C539.911682,321.442993 539.904297,323.260620 539.982056,325.543457 
	C538.671997,326.406647 537.300110,327.149933 535.927307,327.151550 
	C485.324890,327.211243 434.722443,327.203094 384.119965,327.189178 
	C383.643158,327.189056 383.166412,326.987183 381.952332,326.712982 
	C381.952332,319.257629 382.077484,311.663300 381.922821,304.074677 
	C381.694519,292.872833 382.272736,281.770752 386.302429,271.191956 
	C388.179688,266.263794 390.724609,261.589966 393.043549,256.451630 
	C402.519531,242.344971 414.600586,231.723694 429.950378,224.439545 
	C433.917969,223.139877 437.697815,221.996521 441.545654,221.169205 
	C472.120911,214.595245 498.301636,222.431061 520.158691,245.392685 
	C529.263123,256.787323 535.973572,269.010193 538.398254,283.269897 
	C538.675171,284.898376 538.826416,286.548218 539.085693,288.601746 
z"/>
</svg>